<svg width="186" height="107" viewBox="0 0 186 107" fill="none" xmlns="http://www.w3.org/2000/svg">
<path d="M46 21.5C58.2139 21.5 69.1758 25.2158 77.0273 31.1045C84.8781 36.9926 89.5 44.9365 89.5 53.5C89.5 62.0635 84.8781 70.0074 77.0273 75.8955C69.1758 81.7842 58.2139 85.5 46 85.5C33.7861 85.5 22.8242 81.7842 14.9727 75.8955C7.12193 70.0074 2.5 62.0635 2.5 53.5C2.5 44.9365 7.12193 36.9926 14.9727 31.1045C22.8242 25.2158 33.7861 21.5 46 21.5Z" stroke="#47B6A9" stroke-width="5"/>
<path d="M65.5 12.5C83.1645 12.5 99.0435 17.2595 110.433 24.8232C121.84 32.3992 128.5 42.5883 128.5 53.5C128.5 64.4117 121.84 74.6008 110.433 82.1768C99.0435 89.7405 83.1645 94.5 65.5 94.5C47.8355 94.5 31.9565 89.7405 20.5674 82.1768C9.15991 74.6008 2.5 64.4117 2.5 53.5C2.5 42.5883 9.15991 32.3992 20.5674 24.8232C31.9565 17.2595 47.8355 12.5 65.5 12.5Z" stroke="#47B6A9" stroke-width="5"/>
<path d="M87 2.5C110.638 2.5 131.919 8.39745 147.209 17.7998C162.539 27.2272 171.5 39.9193 171.5 53.5C171.5 67.0807 162.539 79.7728 147.209 89.2002C131.919 98.6026 110.638 104.5 87 104.5C63.3618 104.5 42.0808 98.6026 26.791 89.2002C11.4607 79.7728 2.5 67.0807 2.5 53.5C2.5 39.9193 11.4607 27.2272 26.791 17.7998C42.0808 8.39745 63.3618 2.5 87 2.5Z" stroke="#47B6A9" stroke-width="5"/>
<path d="M167.5 44.5L164 37H170L167.5 44.5Z" fill="#47B6A9"/>
<rect x="30" y="37" width="153" height="33" fill="#101F2B"/>
<path d="M19.0806 38.3325C21.5422 38.3325 23.8056 38.7805 25.8101 39.7495L26.1782 39.9341C27.9955 40.8823 29.4875 42.1965 30.6069 43.8755C31.817 45.6906 32.451 47.7815 32.5669 50.0737L32.686 52.438H21.811L21.5269 50.5171C21.4033 49.6814 21.1072 49.1559 20.7251 48.7896L20.7144 48.7788L20.7026 48.7681C20.406 48.4755 19.978 48.2554 19.1948 48.2554C18.5531 48.2554 18.0848 48.4217 17.6958 48.7056L17.6909 48.7085C17.3066 48.9876 16.9175 49.4551 16.5942 50.2593C16.2833 51.033 16.0874 52.0764 16.0874 53.4546C16.0874 54.8579 16.2791 55.9235 16.5845 56.7144C16.8662 57.4192 17.2017 57.8717 17.5464 58.1675L17.6958 58.2856L17.8452 58.3862C18.2043 58.6082 18.6331 58.7348 19.1948 58.7349C19.673 58.7349 20.0253 58.6393 20.3013 58.4966L20.3081 58.4927L20.3149 58.4897C20.6007 58.3445 20.8401 58.1366 21.0474 57.8257L21.0522 57.8188L21.1294 57.6968C21.3038 57.3991 21.4481 57.0051 21.5269 56.4741L21.812 54.5532H32.7007L32.5659 56.9312C32.4374 59.1922 31.8126 61.2632 30.645 63.0825L30.644 63.0815C29.5584 64.779 28.089 66.1147 26.2847 67.0874L25.9185 67.2778C23.9108 68.2816 21.6189 68.7397 19.1138 68.7397C16.2217 68.7397 13.5998 68.1255 11.3403 66.7964L11.3335 66.7925L11.3276 66.7876C9.11554 65.4656 7.40817 63.6217 6.229 61.3022L6.22412 61.2935C5.06253 58.9832 4.51416 56.3835 4.51416 53.5522C4.51422 50.6904 5.06776 48.074 6.24756 45.7661L6.24951 45.7612L6.479 45.3325C7.6547 43.2201 9.28774 41.5305 11.3599 40.3022V40.3013C13.6085 38.9574 16.212 38.3326 19.0806 38.3325Z" fill="#47B6A9" stroke="#101F2B" stroke-width="4.5"/>
<path d="M46.1118 38.5825C48.9351 38.5825 51.4858 39.1897 53.6851 40.4878L54.0894 40.7329C56.0821 41.9887 57.6361 43.703 58.7349 45.8394L58.9478 46.2681C59.9757 48.4344 60.4614 50.8788 60.4614 53.5522C60.4614 56.3854 59.9071 58.9685 58.7368 61.2456L58.7349 61.2505C57.5627 63.5181 55.8745 65.3138 53.6929 66.5972L53.689 66.5991C51.4885 67.888 48.9366 68.4897 46.1118 68.4897C43.2864 68.4897 40.731 67.8875 38.522 66.6011L38.5103 66.5942C36.34 65.3101 34.6593 63.515 33.4888 61.2505L33.4858 61.2456C32.3156 58.9685 31.7622 56.3853 31.7622 53.5522C31.7623 50.7024 32.3145 48.1132 33.4868 45.8433H33.4858C34.6556 43.5672 36.3384 41.7692 38.5142 40.4937V40.4917C40.7245 39.1915 43.283 38.5825 46.1118 38.5825ZM102.905 38.5825C105.336 38.5825 107.561 39.0244 109.526 39.9741L109.886 40.1558C111.668 41.0856 113.128 42.3719 114.223 44.0142C115.405 45.7873 116.027 47.8335 116.141 50.0864L116.248 52.188H105.851L105.598 50.48C105.468 49.5981 105.15 49.0192 104.722 48.6089L104.703 48.5894C104.352 48.2435 103.857 48.0054 103.019 48.0054C102.329 48.0054 101.808 48.1858 101.373 48.5034L101.369 48.5063C100.939 48.8185 100.524 49.3273 100.187 50.1655C99.8609 50.9767 99.6616 52.0539 99.6616 53.4546C99.6616 54.8757 99.8553 55.9717 100.173 56.7983L100.303 57.1011C100.615 57.7714 100.985 58.205 101.373 58.4878L101.54 58.6001C101.94 58.8475 102.415 58.9848 103.019 58.9849C103.532 58.9849 103.925 58.8815 104.241 58.7183L104.252 58.7124L104.373 58.647C104.646 58.4861 104.878 58.2665 105.08 57.9644L105.084 57.9575L105.169 57.8228C105.362 57.4937 105.515 57.0682 105.598 56.5103L105.851 54.8032H116.26L116.14 56.9165C116.014 59.138 115.401 61.1653 114.26 62.9438L114.261 62.9448C113.2 64.6059 111.76 65.9133 109.99 66.8677L109.631 67.0542C107.665 68.0373 105.413 68.4897 102.938 68.4897C100.082 68.4897 97.5056 67.883 95.2915 66.5806L95.2798 66.5737C93.109 65.2764 91.4341 63.4673 90.2759 61.189L90.272 61.1812C89.1305 58.911 88.5884 56.3508 88.5884 53.5522C88.5884 50.7227 89.1355 48.1462 90.2944 45.8794L90.2964 45.8755L90.521 45.4546C91.6759 43.3792 93.2783 41.7214 95.312 40.5161V40.5151C97.5152 39.1984 100.073 38.5826 102.905 38.5825ZM77.3423 38.5825C79.3838 38.5825 81.2643 39.0323 82.9136 40.0024C84.5577 40.9696 85.824 42.351 86.7056 44.0874H86.7046C87.5957 45.8316 88.0004 47.8333 88.0005 50.0239V68.0005H77.0415V51.2515C77.0499 50.0617 76.7497 49.4126 76.396 49.0298L76.3872 49.02C76.0404 48.6401 75.5247 48.3647 74.5815 48.3647C73.9417 48.3648 73.4602 48.4997 73.0796 48.7124C72.7358 48.9101 72.4469 49.2006 72.2114 49.6489L72.1323 49.8159C71.958 50.2218 71.838 50.7655 71.8286 51.4946V68.0005H60.8696V38.9097H71.5015V40.1948C73.19 39.0871 75.17 38.5825 77.3423 38.5825ZM46.144 47.8911C45.3858 47.8912 44.877 48.0965 44.4868 48.4224C44.0227 48.8189 43.6142 49.401 43.3101 50.2642C43.0061 51.1575 42.8355 52.2282 42.8354 53.5034C42.8354 54.7785 43.0062 55.8494 43.3101 56.7427L43.4292 57.0562C43.7171 57.7494 44.0807 58.237 44.4858 58.5835C44.8744 58.8985 45.3848 59.0991 46.144 59.0991C46.8871 59.0991 47.3704 58.9017 47.731 58.6021C48.1879 58.2095 48.5939 57.629 48.8921 56.7593L48.894 56.7515L48.897 56.7427C49.211 55.8513 49.3882 54.7809 49.3882 53.5034C49.3882 52.2259 49.2111 51.1556 48.897 50.2642L48.894 50.2563L48.8921 50.2485C48.5939 49.3788 48.1888 48.7973 47.7319 48.4048C47.3696 48.0936 46.8874 47.8911 46.144 47.8911Z" fill="#47B6A9" stroke="#101F2B" stroke-width="4"/>
<path d="M141.766 38.7319C143.304 38.7319 144.792 38.913 146.224 39.2798L146.772 39.4302C148.032 39.8053 149.188 40.3472 150.227 41.0649H150.228C151.474 41.9184 152.462 43.0233 153.178 44.3579L153.315 44.6216C153.972 45.9509 154.267 47.4553 154.267 49.0767V67.8501H143.967V66.8921C143.415 67.2224 142.823 67.5013 142.192 67.7261L142.182 67.729L142.173 67.7329C140.992 68.1402 139.687 68.3237 138.288 68.3237C136.472 68.3237 134.782 68.0078 133.257 67.3315L133.245 67.3267C131.689 66.6233 130.423 65.5656 129.493 64.1636L129.481 64.146C128.525 62.6687 128.106 60.9141 128.106 58.9917C128.106 57.3788 128.402 55.8864 129.096 54.6011L129.222 54.3765C129.865 53.2658 130.729 52.3475 131.802 51.645L132.208 51.3921C133.043 50.8961 133.949 50.5068 134.917 50.2183L130.689 49.8755L128.587 49.7046L129.03 47.644C129.417 45.8357 130.191 44.2302 131.365 42.8696C132.464 41.5846 133.845 40.6037 135.465 39.9116L135.793 39.7769C137.577 39.0645 139.58 38.732 141.766 38.7319ZM127.408 23.6958V67.8501H116.75V23.6958H127.408ZM162.593 39.0591L163.024 40.3042L167.615 53.5737L172.194 40.3052L172.624 39.0591H182.917L182.056 41.52L173.284 66.6108L172.85 67.8501H162.383L161.951 66.6108L153.178 41.52L152.318 39.0591H162.593ZM143.658 56.895C143.186 56.9825 142.715 57.0663 142.244 57.1431L142.223 57.146L142.202 57.1489C141.738 57.2136 141.318 57.2728 140.941 57.3267L140.446 57.4126C140.133 57.4761 139.855 57.5519 139.608 57.6362L139.261 57.769C138.892 57.9273 138.697 58.0994 138.586 58.2456L138.58 58.2544L138.537 58.3188C138.497 58.3917 138.455 58.522 138.455 58.7632C138.455 59.1869 138.57 59.3248 138.713 59.4321C139.028 59.6484 139.509 59.8208 140.28 59.8208C141.05 59.8208 141.652 59.6709 142.133 59.4263C142.652 59.1512 143.019 58.81 143.28 58.4028L143.366 58.2573C143.554 57.9117 143.658 57.5153 143.658 57.0317V56.895ZM141.734 47.5122C140.742 47.5122 140.179 47.7329 139.855 47.9761L139.847 47.981L139.84 47.9858C139.405 48.306 139.17 48.6589 139.051 49.0679L138.94 49.4517C139.023 49.4428 139.106 49.4334 139.189 49.4253L140.219 49.3149C140.868 49.2425 141.443 49.1729 141.945 49.1069L142.642 49.0103C143.118 48.9337 143.422 48.8449 143.603 48.7798C143.58 48.2632 143.421 48.0443 143.266 47.9097L143.261 47.9048L143.255 47.8999C143.062 47.7292 142.644 47.5122 141.734 47.5122Z" fill="#47B6A9" stroke="#101F2B" stroke-width="3.7"/>
<path d="M168 46C167 43 165.394 39.0839 163.668 36.4922L169.75 37C170.136 37.7773 170.37 38.263 170.636 39.0177L168 46Z" fill="#47B6A9"/>
</svg>
