<svg width="210" height="120" viewBox="0 0 210 120" fill="none" xmlns="http://www.w3.org/2000/svg">
<ellipse cx="105" cy="60" rx="105" ry="60" fill="#101F2B"/>
<path d="M100 8.5C123.638 8.5 144.919 14.3974 160.209 23.7998C175.539 33.2272 184.5 45.9193 184.5 59.5C184.5 73.0807 175.539 85.7728 160.209 95.2002C144.919 104.603 123.638 110.5 100 110.5C76.3618 110.5 55.0808 104.603 39.791 95.2002C24.4607 85.7728 15.5 73.0807 15.5 59.5C15.5 45.9193 24.4607 33.2272 39.791 23.7998C55.0808 14.3974 76.3618 8.5 100 8.5Z" fill="#101F2B" stroke="white" stroke-width="5"/>
<path d="M59 27.5C71.2139 27.5 82.1758 31.2158 90.0273 37.1045C97.8781 42.9926 102.5 50.9365 102.5 59.5C102.5 68.0635 97.8781 76.0074 90.0273 81.8955C82.1758 87.7842 71.2139 91.5 59 91.5C46.7861 91.5 35.8242 87.7842 27.9727 81.8955C20.1219 76.0074 15.5 68.0635 15.5 59.5C15.5 50.9365 20.1219 42.9926 27.9727 37.1045C35.8242 31.2158 46.7861 27.5 59 27.5Z" stroke="white" stroke-width="5"/>
<path d="M78.5 18.5C96.1645 18.5 112.043 23.2595 123.433 30.8232C134.84 38.3992 141.5 48.5883 141.5 59.5C141.5 70.4117 134.84 80.6008 123.433 88.1768C112.043 95.7405 96.1645 100.5 78.5 100.5C60.8355 100.5 44.9565 95.7405 33.5674 88.1768C22.1599 80.6008 15.5 70.4117 15.5 59.5C15.5 48.5883 22.1599 38.3992 33.5674 30.8232C44.9565 23.2595 60.8355 18.5 78.5 18.5Z" stroke="white" stroke-width="5"/>
<path d="M32.0806 44.3325C34.5422 44.3325 36.8056 44.7805 38.8101 45.7495L39.1782 45.9341C40.9955 46.8823 42.4875 48.1965 43.6069 49.8755C44.817 51.6906 45.451 53.7815 45.5669 56.0737L45.686 58.438H34.811L34.5269 56.5171C34.4033 55.6814 34.1072 55.1559 33.7251 54.7896L33.7144 54.7788L33.7026 54.7681C33.406 54.4755 32.978 54.2554 32.1948 54.2554C31.5531 54.2554 31.0848 54.4217 30.6958 54.7056L30.6909 54.7085C30.3066 54.9876 29.9175 55.4551 29.5942 56.2593C29.2833 57.033 29.0874 58.0764 29.0874 59.4546C29.0874 60.8579 29.2791 61.9235 29.5845 62.7144C29.8662 63.4192 30.2017 63.8717 30.5464 64.1675L30.6958 64.2856L30.8452 64.3862C31.2043 64.6082 31.6331 64.7348 32.1948 64.7349C32.673 64.7349 33.0253 64.6393 33.3013 64.4966L33.3081 64.4927L33.3149 64.4897C33.6007 64.3445 33.8401 64.1366 34.0474 63.8257L34.0522 63.8188L34.1294 63.6968C34.3038 63.3991 34.4481 63.0051 34.5269 62.4741L34.812 60.5532H45.7007L45.5659 62.9312C45.4374 65.1922 44.8126 67.2632 43.645 69.0825L43.644 69.0815C42.5584 70.779 41.089 72.1147 39.2847 73.0874L38.9185 73.2778C36.9108 74.2816 34.6189 74.7397 32.1138 74.7397C29.2217 74.7397 26.5998 74.1255 24.3403 72.7964L24.3335 72.7925L24.3276 72.7876C22.1155 71.4656 20.4082 69.6217 19.229 67.3022L19.2241 67.2935C18.0625 64.9832 17.5142 62.3835 17.5142 59.5522C17.5142 56.6904 18.0678 54.074 19.2476 51.7661L19.2495 51.7612L19.479 51.3325C20.6547 49.2201 22.2877 47.5305 24.3599 46.3022V46.3013C26.6085 44.9574 29.212 44.3326 32.0806 44.3325Z" fill="white" stroke="#101F2B" stroke-width="4.5"/>
<path d="M59.1118 44.5825C61.9351 44.5825 64.4858 45.1897 66.6851 46.4878L67.0894 46.7329C69.0821 47.9887 70.6361 49.703 71.7349 51.8394L71.9478 52.2681C72.9757 54.4344 73.4614 56.8788 73.4614 59.5522C73.4614 62.3854 72.9071 64.9685 71.7368 67.2456L71.7349 67.2505C70.5627 69.5181 68.8745 71.3138 66.6929 72.5972L66.689 72.5991C64.4885 73.888 61.9366 74.4897 59.1118 74.4897C56.2864 74.4897 53.731 73.8875 51.522 72.6011L51.5103 72.5942C49.34 71.3101 47.6593 69.515 46.4888 67.2505L46.4858 67.2456C45.3156 64.9685 44.7622 62.3853 44.7622 59.5522C44.7623 56.7024 45.3145 54.1132 46.4868 51.8433H46.4858C47.6556 49.5672 49.3384 47.7692 51.5142 46.4937V46.4917C53.7245 45.1915 56.283 44.5825 59.1118 44.5825ZM115.905 44.5825C118.336 44.5825 120.561 45.0244 122.526 45.9741L122.886 46.1558C124.668 47.0856 126.128 48.3719 127.223 50.0142C128.405 51.7873 129.027 53.8335 129.141 56.0864L129.248 58.188H118.851L118.598 56.48C118.468 55.5981 118.15 55.0192 117.722 54.6089L117.703 54.5894C117.352 54.2435 116.857 54.0054 116.019 54.0054C115.329 54.0054 114.808 54.1858 114.373 54.5034L114.369 54.5063C113.939 54.8185 113.524 55.3273 113.187 56.1655C112.861 56.9767 112.662 58.0539 112.662 59.4546C112.662 60.8757 112.855 61.9717 113.173 62.7983L113.303 63.1011C113.615 63.7714 113.985 64.205 114.373 64.4878L114.54 64.6001C114.94 64.8475 115.415 64.9848 116.019 64.9849C116.532 64.9849 116.925 64.8815 117.241 64.7183L117.252 64.7124L117.373 64.647C117.646 64.4861 117.878 64.2665 118.08 63.9644L118.084 63.9575L118.169 63.8228C118.362 63.4937 118.515 63.0682 118.598 62.5103L118.851 60.8032H129.26L129.14 62.9165C129.014 65.138 128.401 67.1653 127.26 68.9438L127.261 68.9448C126.2 70.6059 124.76 71.9133 122.99 72.8677L122.631 73.0542C120.665 74.0373 118.413 74.4897 115.938 74.4897C113.082 74.4897 110.506 73.883 108.292 72.5806L108.28 72.5737C106.109 71.2764 104.434 69.4673 103.276 67.189L103.272 67.1812C102.131 64.911 101.588 62.3508 101.588 59.5522C101.588 56.7227 102.136 54.1462 103.294 51.8794L103.296 51.8755L103.521 51.4546C104.676 49.3792 106.278 47.7214 108.312 46.5161V46.5151C110.515 45.1984 113.073 44.5826 115.905 44.5825ZM90.3423 44.5825C92.3838 44.5825 94.2643 45.0323 95.9136 46.0024C97.5577 46.9696 98.824 48.351 99.7056 50.0874H99.7046C100.596 51.8316 101 53.8333 101 56.0239V74.0005H90.0415V57.2515C90.0499 56.0617 89.7497 55.4126 89.396 55.0298L89.3872 55.02C89.0404 54.6401 88.5247 54.3647 87.5815 54.3647C86.9417 54.3648 86.4602 54.4997 86.0796 54.7124C85.7358 54.9101 85.4469 55.2006 85.2114 55.6489L85.1323 55.8159C84.958 56.2218 84.838 56.7655 84.8286 57.4946V74.0005H73.8696V44.9097H84.5015V46.1948C86.19 45.0871 88.17 44.5825 90.3423 44.5825ZM59.144 53.8911C58.3858 53.8912 57.877 54.0965 57.4868 54.4224C57.0227 54.8189 56.6142 55.401 56.3101 56.2642C56.0061 57.1575 55.8355 58.2282 55.8354 59.5034C55.8354 60.7785 56.0062 61.8494 56.3101 62.7427L56.4292 63.0562C56.7171 63.7494 57.0807 64.237 57.4858 64.5835C57.8744 64.8985 58.3848 65.0991 59.144 65.0991C59.8871 65.0991 60.3704 64.9017 60.731 64.6021C61.1879 64.2095 61.5939 63.629 61.8921 62.7593L61.894 62.7515L61.897 62.7427C62.211 61.8513 62.3882 60.7809 62.3882 59.5034C62.3882 58.2259 62.2111 57.1556 61.897 56.2642L61.894 56.2563L61.8921 56.2485C61.5939 55.3788 61.1888 54.7973 60.7319 54.4048C60.3696 54.0936 59.8874 53.8911 59.144 53.8911Z" fill="white" stroke="#101F2B" stroke-width="4"/>
<path d="M154.766 44.7319C156.304 44.7319 157.792 44.913 159.224 45.2798L159.772 45.4302C161.032 45.8053 162.188 46.3472 163.227 47.0649H163.228C164.474 47.9184 165.462 49.0233 166.178 50.3579L166.315 50.6216C166.972 51.9509 167.267 53.4553 167.267 55.0767V73.8501H156.967V72.8921C156.415 73.2224 155.823 73.5013 155.192 73.7261L155.182 73.729L155.173 73.7329C153.992 74.1402 152.687 74.3237 151.288 74.3237C149.472 74.3237 147.782 74.0078 146.257 73.3315L146.245 73.3267C144.689 72.6233 143.423 71.5656 142.493 70.1636L142.481 70.146C141.525 68.6687 141.106 66.9141 141.106 64.9917C141.106 63.3788 141.402 61.8864 142.096 60.6011L142.222 60.3765C142.865 59.2658 143.729 58.3475 144.802 57.645L145.208 57.3921C146.043 56.8961 146.949 56.5068 147.917 56.2183L143.689 55.8755L141.587 55.7046L142.03 53.644C142.417 51.8357 143.191 50.2302 144.365 48.8696C145.464 47.5846 146.845 46.6037 148.465 45.9116L148.793 45.7769C150.577 45.0645 152.58 44.732 154.766 44.7319ZM140.408 29.6958V73.8501H129.75V29.6958H140.408ZM175.593 45.0591L176.024 46.3042L180.615 59.5737L185.194 46.3052L185.624 45.0591H195.917L195.056 47.52L186.284 72.6108L185.85 73.8501H175.383L174.951 72.6108L166.178 47.52L165.318 45.0591H175.593ZM156.658 62.895C156.186 62.9825 155.715 63.0663 155.244 63.1431L155.223 63.146L155.202 63.1489C154.738 63.2136 154.318 63.2728 153.941 63.3267L153.446 63.4126C153.133 63.4761 152.855 63.5519 152.608 63.6362L152.261 63.769C151.892 63.9273 151.697 64.0994 151.586 64.2456L151.58 64.2544L151.537 64.3188C151.497 64.3917 151.455 64.522 151.455 64.7632C151.455 65.1869 151.57 65.3248 151.713 65.4321C152.028 65.6484 152.509 65.8208 153.28 65.8208C154.05 65.8208 154.652 65.6709 155.133 65.4263C155.652 65.1512 156.019 64.81 156.28 64.4028L156.366 64.2573C156.554 63.9117 156.658 63.5153 156.658 63.0317V62.895ZM154.734 53.5122C153.742 53.5122 153.179 53.7329 152.855 53.9761L152.847 53.981L152.84 53.9858C152.405 54.306 152.17 54.6589 152.051 55.0679L151.94 55.4517C152.023 55.4428 152.106 55.4334 152.189 55.4253L153.219 55.3149C153.868 55.2425 154.443 55.1729 154.945 55.1069L155.642 55.0103C156.118 54.9337 156.422 54.8449 156.603 54.7798C156.58 54.2632 156.421 54.0443 156.266 53.9097L156.261 53.9048L156.255 53.8999C156.062 53.7292 155.644 53.5122 154.734 53.5122Z" fill="white" stroke="#101F2B" stroke-width="3.7"/>
</svg>
