<svg width="1848" height="679" viewBox="0 0 1848 679" fill="none" xmlns="http://www.w3.org/2000/svg">
<g clip-path="url(#clip0_447_105)">
<path d="M339.5 665.42C519.501 665.42 665.42 519.501 665.42 339.5C665.42 159.499 519.501 13.5801 339.5 13.5801C159.499 13.5801 13.5801 159.499 13.5801 339.5C13.5801 519.501 159.499 665.42 339.5 665.42Z" stroke="#0A192F" stroke-width="27"/>
<path d="M56.288 301.045V270.818H176.387V301.045H134.825V409H97.8505V301.045H56.288ZM190.506 409V270.818H250.151C260.406 270.818 269.38 272.685 277.072 276.418C284.764 280.152 290.746 285.527 295.019 292.544C299.293 299.561 301.429 307.973 301.429 317.778C301.429 327.674 299.225 336.018 294.817 342.81C290.454 349.603 284.314 354.73 276.397 358.194C268.526 361.657 259.327 363.389 248.801 363.389H213.176V334.241H241.244C245.653 334.241 249.409 333.702 252.512 332.622C255.661 331.498 258.067 329.721 259.732 327.292C261.441 324.863 262.296 321.692 262.296 317.778C262.296 313.82 261.441 310.604 259.732 308.13C258.067 305.611 255.661 303.767 252.512 302.597C249.409 301.383 245.653 300.776 241.244 300.776H228.02V409H190.506ZM271.472 345.577L306.017 409H265.264L231.529 345.577H271.472ZM354.934 270.818V409H317.42V270.818H354.934ZM372.713 409V270.818H432.628C443.153 270.818 451.992 272.235 459.144 275.069C466.341 277.903 471.761 281.906 475.405 287.079C479.093 292.252 480.937 298.347 480.937 305.364C480.937 310.446 479.813 315.08 477.564 319.263C475.36 323.446 472.256 326.955 468.253 329.788C464.249 332.577 459.571 334.511 454.219 335.591V336.94C460.156 337.165 465.554 338.672 470.412 341.461C475.27 344.205 479.138 348.006 482.017 352.864C484.896 357.677 486.335 363.344 486.335 369.866C486.335 377.423 484.356 384.148 480.398 390.04C476.484 395.933 470.907 400.566 463.665 403.94C456.423 407.313 447.786 409 437.756 409H372.713ZM410.227 379.043H427.77C434.067 379.043 438.79 377.873 441.939 375.534C445.087 373.15 446.662 369.642 446.662 365.009C446.662 361.77 445.92 359.026 444.435 356.777C442.951 354.528 440.837 352.819 438.093 351.649C435.394 350.48 432.133 349.895 428.309 349.895H410.227V379.043ZM410.227 326.685H425.611C428.894 326.685 431.796 326.167 434.314 325.133C436.833 324.098 438.79 322.614 440.184 320.68C441.624 318.701 442.344 316.294 442.344 313.46C442.344 309.187 440.814 305.926 437.756 303.677C434.697 301.383 430.828 300.236 426.15 300.236H410.227V326.685ZM581.403 270.818H618.917V359.341C618.917 369.866 616.398 378.975 611.36 386.667C606.367 394.314 599.395 400.229 590.444 404.412C581.492 408.55 571.102 410.619 559.272 410.619C547.352 410.619 536.916 408.55 527.965 404.412C519.014 400.229 512.042 394.314 507.049 386.667C502.101 378.975 499.627 369.866 499.627 359.341V270.818H537.141V356.102C537.141 360.375 538.086 364.199 539.975 367.572C541.864 370.901 544.473 373.51 547.802 375.399C551.175 377.288 554.999 378.233 559.272 378.233C563.59 378.233 567.413 377.288 570.742 375.399C574.071 373.51 576.68 370.901 578.569 367.572C580.458 364.199 581.403 360.375 581.403 356.102V270.818Z" fill="black"/>
</g>
<path d="M1294.16 126.317C1308.05 126.317 1319.32 115.053 1319.32 101.158C1319.32 87.2638 1308.05 76 1294.16 76C1280.26 76 1269 87.2638 1269 101.158C1269 115.053 1280.26 126.317 1294.16 126.317Z" fill="#0A192F"/>
<path d="M1461.88 126.317C1475.78 126.317 1487.04 115.053 1487.04 101.158C1487.04 87.2638 1475.78 76 1461.88 76C1447.99 76 1436.72 87.2638 1436.72 101.158C1436.72 115.053 1447.99 126.317 1461.88 126.317Z" fill="#0A192F"/>
<path d="M1401.18 268.881C1401.18 281.671 1390.81 292.039 1378.02 292.039C1365.23 292.039 1354.86 281.671 1354.86 268.881C1354.86 256.091 1365.23 245.723 1378.02 245.723C1390.81 245.723 1401.18 256.091 1401.18 268.881Z" fill="#0A192F" stroke="black" stroke-width="4"/>
<path d="M1294.16 101.159H1461.88" stroke="#0A192F" stroke-width="0.8"/>
<path d="M1294.16 101.159L1378.02 268.882" stroke="#0A192F" stroke-width="0.8"/>
<path d="M1461.88 101.159L1378.02 268.882" stroke="#0A192F" stroke-width="0.8"/>
<path d="M1487.16 126.317C1501.05 126.317 1512.32 115.053 1512.32 101.158C1512.32 87.2638 1501.05 76 1487.16 76C1473.26 76 1462 87.2638 1462 101.158C1462 115.053 1473.26 126.317 1487.16 126.317Z" fill="#0A192F"/>
<path d="M1654.88 126.317C1668.78 126.317 1680.04 115.053 1680.04 101.158C1680.04 87.2638 1668.78 76 1654.88 76C1640.99 76 1629.72 87.2638 1629.72 101.158C1629.72 115.053 1640.99 126.317 1654.88 126.317Z" fill="#0A192F"/>
<path d="M1594.18 268.881C1594.18 281.671 1583.81 292.039 1571.02 292.039C1558.23 292.039 1547.86 281.671 1547.86 268.881C1547.86 256.091 1558.23 245.723 1571.02 245.723C1583.81 245.723 1594.18 256.091 1594.18 268.881Z" fill="#0A192F" stroke="black" stroke-width="4"/>
<path d="M1487.16 101.159H1654.88" stroke="#0A192F" stroke-width="0.8"/>
<path d="M1487.16 101.159L1571.02 268.882" stroke="#0A192F" stroke-width="0.8"/>
<path d="M1847.5 268.882L1571.02 268.881" stroke="#0A192F" stroke-width="0.8"/>
<path d="M1322.54 208.342C1329.5 200.621 1328.87 188.728 1321.15 181.777C1313.43 174.825 1301.54 175.449 1294.59 183.169C1287.64 190.889 1288.26 202.783 1295.98 209.734C1303.7 216.685 1315.59 216.062 1322.54 208.342Z" fill="#0A192F"/>
<path d="M1406.45 115.151C1413.4 107.431 1412.78 95.5375 1405.06 88.5863C1397.34 81.635 1385.45 82.2583 1378.5 89.9785C1371.54 97.6986 1372.17 109.592 1379.89 116.543C1387.61 123.495 1399.5 122.871 1406.45 115.151Z" fill="#0A192F"/>
<path d="M1454.96 220.577C1461.86 226.79 1462.41 237.419 1456.2 244.318C1449.99 251.217 1439.36 251.774 1432.46 245.562C1425.56 239.35 1425.01 228.721 1431.22 221.822C1437.43 214.922 1448.06 214.365 1454.96 220.577Z" fill="#0A192F" stroke="black" stroke-width="4"/>
<path d="M1308.57 195.756L1392.47 102.565" stroke="#0A192F" stroke-width="0.8"/>
<path d="M1308.57 195.756L1443.71 233.07" stroke="#0A192F" stroke-width="0.8"/>
<path d="M1392.47 102.565L1443.71 233.069" stroke="#0A192F" stroke-width="0.8"/>
<path d="M714.446 280V176.364H749.801V196.065H750.881C753.04 189.588 756.728 184.46 761.946 180.682C767.164 176.903 773.371 175.014 780.568 175.014C787.855 175.014 794.13 176.948 799.393 180.817C804.656 184.64 807.827 189.723 808.906 196.065H809.986C811.74 189.723 815.473 184.64 821.186 180.817C826.899 176.948 833.601 175.014 841.293 175.014C851.233 175.014 859.285 178.208 865.447 184.595C871.655 190.982 874.759 199.484 874.759 210.099V280H837.514V219.545C837.514 215.002 836.367 211.449 834.073 208.885C831.779 206.276 828.698 204.972 824.83 204.972C821.006 204.972 817.97 206.276 815.721 208.885C813.517 211.449 812.415 215.002 812.415 219.545V280H776.79V219.545C776.79 215.002 775.643 211.449 773.349 208.885C771.055 206.276 767.973 204.972 764.105 204.972C761.541 204.972 759.337 205.556 757.493 206.726C755.649 207.895 754.209 209.582 753.175 211.786C752.185 213.945 751.69 216.532 751.69 219.545V280H714.446ZM893.128 280V176.364H930.372V280H893.128ZM911.75 165.568C906.712 165.568 902.394 163.904 898.795 160.575C895.197 157.247 893.398 153.243 893.398 148.565C893.398 143.887 895.197 139.884 898.795 136.555C902.394 133.227 906.712 131.562 911.75 131.562C916.833 131.562 921.151 133.227 924.704 136.555C928.303 139.884 930.102 143.887 930.102 148.565C930.102 153.243 928.303 157.247 924.704 160.575C921.151 163.904 916.833 165.568 911.75 165.568ZM999.277 281.889C988.032 281.889 978.406 279.663 970.4 275.21C962.393 270.711 956.253 264.459 951.98 256.452C947.707 248.401 945.57 239.067 945.57 228.452C945.57 217.836 947.707 208.525 951.98 200.518C956.253 192.467 962.393 186.214 970.4 181.761C978.406 177.263 988.032 175.014 999.277 175.014C1009.44 175.014 1018.24 176.858 1025.66 180.547C1033.13 184.19 1038.91 189.363 1043 196.065C1047.09 202.723 1049.16 210.549 1049.21 219.545H1014.66C1014.17 214.103 1012.59 209.964 1009.94 207.131C1007.33 204.252 1003.96 202.812 999.817 202.812C996.578 202.812 993.745 203.757 991.316 205.646C988.887 207.491 986.998 210.302 985.648 214.08C984.299 217.814 983.624 222.514 983.624 228.182C983.624 233.849 984.299 238.572 985.648 242.351C986.998 246.084 988.887 248.896 991.316 250.785C993.745 252.629 996.578 253.551 999.817 253.551C1002.56 253.551 1004.99 252.921 1007.1 251.662C1009.22 250.357 1010.93 248.468 1012.23 245.994C1013.58 243.475 1014.39 240.417 1014.66 236.818H1049.21C1049.07 245.949 1046.98 253.911 1042.93 260.703C1038.88 267.45 1033.15 272.668 1025.73 276.357C1018.35 280.045 1009.53 281.889 999.277 281.889ZM1064.57 280V176.364H1100.74V196.065H1101.82C1103.71 188.778 1106.7 183.448 1110.79 180.075C1114.93 176.701 1119.76 175.014 1125.3 175.014C1126.92 175.014 1128.51 175.149 1130.09 175.419C1131.71 175.644 1133.26 175.981 1134.74 176.431V208.21C1132.9 207.58 1130.63 207.108 1127.93 206.793C1125.23 206.478 1122.91 206.321 1120.98 206.321C1117.34 206.321 1114.05 207.153 1111.13 208.817C1108.25 210.437 1105.98 212.731 1104.31 215.7C1102.65 218.623 1101.82 222.064 1101.82 226.023V280H1064.57ZM1190.95 281.889C1179.7 281.889 1170.08 279.663 1162.07 275.21C1154.06 270.711 1147.92 264.459 1143.65 256.452C1139.38 248.401 1137.24 239.067 1137.24 228.452C1137.24 217.836 1139.38 208.525 1143.65 200.518C1147.92 192.467 1154.06 186.214 1162.07 181.761C1170.08 177.263 1179.7 175.014 1190.95 175.014C1202.19 175.014 1211.82 177.263 1219.83 181.761C1227.83 186.214 1233.97 192.467 1238.24 200.518C1242.52 208.525 1244.65 217.836 1244.65 228.452C1244.65 239.067 1242.52 248.401 1238.24 256.452C1233.97 264.459 1227.83 270.711 1219.83 275.21C1211.82 279.663 1202.19 281.889 1190.95 281.889ZM1191.22 254.361C1194.37 254.361 1197.09 253.304 1199.38 251.19C1201.68 249.076 1203.45 246.062 1204.71 242.148C1205.97 238.235 1206.6 233.58 1206.6 228.182C1206.6 222.739 1205.97 218.084 1204.71 214.215C1203.45 210.302 1201.68 207.288 1199.38 205.174C1197.09 203.06 1194.37 202.003 1191.22 202.003C1187.89 202.003 1185.03 203.06 1182.65 205.174C1180.26 207.288 1178.44 210.302 1177.18 214.215C1175.92 218.084 1175.29 222.739 1175.29 228.182C1175.29 233.58 1175.92 238.235 1177.18 242.148C1178.44 246.062 1180.26 249.076 1182.65 251.19C1185.03 253.304 1187.89 254.361 1191.22 254.361ZM751.69 451.705V510H714.446V406.364H749.801V426.065H750.881C753.13 419.498 757.088 414.348 762.756 410.614C768.468 406.881 775.125 405.014 782.727 405.014C790.059 405.014 796.424 406.701 801.822 410.075C807.264 413.403 811.47 417.991 814.439 423.839C817.453 429.686 818.937 436.366 818.892 443.878V510H781.648V451.705C781.693 446.577 780.388 442.551 777.734 439.627C775.125 436.703 771.482 435.241 766.804 435.241C763.745 435.241 761.069 435.916 758.775 437.266C756.526 438.57 754.794 440.459 753.58 442.933C752.365 445.362 751.735 448.286 751.69 451.705ZM886.937 511.889C875.872 511.889 866.336 509.775 858.329 505.547C850.368 501.274 844.228 495.156 839.909 487.195C835.636 479.188 833.5 469.607 833.5 458.452C833.5 447.746 835.659 438.39 839.977 430.384C844.295 422.377 850.39 416.147 858.262 411.694C866.133 407.241 875.422 405.014 886.127 405.014C893.954 405.014 901.039 406.229 907.381 408.658C913.723 411.087 919.144 414.618 923.642 419.251C928.14 423.839 931.603 429.416 934.032 435.984C936.461 442.551 937.676 449.95 937.676 458.182V466.818H845.105V446.307H903.4C903.355 443.338 902.591 440.729 901.106 438.48C899.667 436.186 897.71 434.409 895.236 433.15C892.807 431.845 890.041 431.193 886.937 431.193C883.923 431.193 881.157 431.845 878.638 433.15C876.119 434.409 874.095 436.164 872.566 438.413C871.081 440.662 870.294 443.293 870.204 446.307V468.438C870.204 471.766 870.901 474.735 872.296 477.344C873.69 479.953 875.692 481.999 878.301 483.484C880.91 484.968 884.058 485.71 887.747 485.71C890.311 485.71 892.65 485.35 894.764 484.631C896.923 483.911 898.767 482.876 900.297 481.527C901.826 480.133 902.95 478.468 903.67 476.534H937.676C936.506 483.731 933.74 489.983 929.377 495.291C925.014 500.554 919.234 504.647 912.037 507.571C904.885 510.45 896.518 511.889 886.937 511.889ZM1014.68 406.364V433.352H946.396V406.364H1014.68ZM959.621 381.534H996.865V476.669C996.865 478.108 997.113 479.323 997.607 480.312C998.102 481.257 998.867 481.977 999.901 482.472C1000.94 482.921 1002.26 483.146 1003.88 483.146C1005.01 483.146 1006.31 483.011 1007.8 482.741C1009.32 482.472 1010.45 482.247 1011.17 482.067L1016.57 508.246C1014.9 508.741 1012.52 509.348 1009.41 510.067C1006.36 510.787 1002.71 511.259 998.485 511.484C989.938 511.934 982.764 511.057 976.961 508.853C971.159 506.604 966.795 503.073 963.872 498.26C960.948 493.447 959.531 487.42 959.621 480.178V381.534ZM1048.23 510L1022.32 406.364H1059.56L1071.44 469.517H1072.25L1085.47 406.364H1121.64L1135.4 468.977H1136.21L1147.55 406.364H1184.79L1158.88 510H1118.67L1104.09 454.403H1103.01L1088.44 510H1048.23ZM1244.2 511.889C1232.95 511.889 1223.33 509.663 1215.32 505.21C1207.31 500.711 1201.17 494.459 1196.9 486.452C1192.63 478.401 1190.49 469.067 1190.49 458.452C1190.49 447.836 1192.63 438.525 1196.9 430.518C1201.17 422.467 1207.31 416.214 1215.32 411.761C1223.33 407.263 1232.95 405.014 1244.2 405.014C1255.44 405.014 1265.07 407.263 1273.08 411.761C1281.08 416.214 1287.22 422.467 1291.5 430.518C1295.77 438.525 1297.91 447.836 1297.91 458.452C1297.91 469.067 1295.77 478.401 1291.5 486.452C1287.22 494.459 1281.08 500.711 1273.08 505.21C1265.07 509.663 1255.44 511.889 1244.2 511.889ZM1244.47 484.361C1247.62 484.361 1250.34 483.304 1252.63 481.19C1254.93 479.076 1256.7 476.062 1257.96 472.148C1259.22 468.235 1259.85 463.58 1259.85 458.182C1259.85 452.739 1259.22 448.084 1257.96 444.215C1256.7 440.302 1254.93 437.288 1252.63 435.174C1250.34 433.06 1247.62 432.003 1244.47 432.003C1241.14 432.003 1238.28 433.06 1235.9 435.174C1233.52 437.288 1231.69 440.302 1230.44 444.215C1229.18 448.084 1228.55 452.739 1228.55 458.182C1228.55 463.58 1229.18 468.235 1230.44 472.148C1231.69 476.062 1233.52 479.076 1235.9 481.19C1238.28 483.304 1241.14 484.361 1244.47 484.361ZM1313.02 510V406.364H1349.19V426.065H1350.26C1352.15 418.778 1355.15 413.448 1359.24 410.075C1363.38 406.701 1368.21 405.014 1373.74 405.014C1375.36 405.014 1376.96 405.149 1378.54 405.419C1380.15 405.644 1381.71 405.981 1383.19 406.431V438.21C1381.35 437.58 1379.07 437.108 1376.38 436.793C1373.68 436.478 1371.36 436.321 1369.43 436.321C1365.78 436.321 1362.5 437.153 1359.58 438.817C1356.7 440.437 1354.43 442.731 1352.76 445.7C1351.1 448.623 1350.26 452.064 1350.26 456.023V510H1313.02ZM1428.87 485.44L1429.14 441.179H1434L1459.1 406.364H1500.93L1458.83 460.611H1448.3L1428.87 485.44ZM1395.4 510V371.818H1432.65V510H1395.4ZM1459.37 510L1435.62 468.977L1459.91 442.528L1502.01 510H1459.37ZM1605.36 440.099H1571.08C1570.9 437.985 1570.16 436.164 1568.86 434.634C1567.55 433.105 1565.86 431.935 1563.8 431.126C1561.77 430.271 1559.52 429.844 1557.05 429.844C1553.85 429.844 1551.11 430.429 1548.82 431.598C1546.52 432.768 1545.4 434.432 1545.44 436.591C1545.4 438.12 1546.05 439.537 1547.4 440.842C1548.79 442.146 1551.47 443.158 1555.43 443.878L1576.48 447.656C1587.1 449.59 1594.99 452.852 1600.16 457.44C1605.38 461.983 1608.01 468.078 1608.06 475.724C1608.01 483.101 1605.81 489.511 1601.44 494.954C1597.13 500.352 1591.21 504.535 1583.7 507.504C1576.23 510.427 1567.71 511.889 1558.13 511.889C1542.29 511.889 1529.9 508.651 1520.95 502.173C1512.04 495.696 1507.07 487.15 1506.04 476.534H1543.01C1543.51 479.818 1545.13 482.359 1547.87 484.158C1550.66 485.913 1554.17 486.79 1558.4 486.79C1561.82 486.79 1564.63 486.205 1566.83 485.036C1569.08 483.866 1570.23 482.202 1570.27 480.043C1570.23 478.063 1569.24 476.489 1567.3 475.32C1565.41 474.15 1562.45 473.205 1558.4 472.486L1540.05 469.247C1529.47 467.403 1521.56 463.894 1516.3 458.722C1511.03 453.549 1508.42 446.892 1508.47 438.75C1508.42 431.553 1510.31 425.458 1514.14 420.465C1518 415.427 1523.51 411.604 1530.67 408.995C1537.86 406.341 1546.39 405.014 1556.24 405.014C1571.22 405.014 1583.02 408.118 1591.66 414.325C1600.34 420.533 1604.91 429.124 1605.36 440.099Z" fill="black"/>
<line x1="679" y1="339.5" x2="1702.02" y2="339.5" stroke="black" stroke-width="23"/>
<defs>
<clipPath id="clip0_447_105">
<rect width="679" height="679" fill="white"/>
</clipPath>
</defs>
</svg>
